<svg xmlns="http://www.w3.org/2000/svg" version="1.1" xmlns:xlink="http://www.w3.org/1999/xlink" xmlns:svgjs="http://svgjs.dev/svgjs" viewBox="0 0 11.903466796875 11.949498332144442"><g transform="matrix(0.8571428571428572,0,0,0.8571428571428572,1.7004952566964278,9.281429394357339)"><g transform="matrix(1,0,0,1,0,0)" clip-path="url(#SvgjsClipPath29184)"><g clip-path="url(#SvgjsClipPath291828635deba-12a7-4b4e-96d2-8bf1349bd9c9)"><path d=" M 5.185839134181671 -0.9999582625016785 C 7.290532998017997 -0.9999582625016785 8.996709521677314 -2.718075702368067 8.996709521677314 -4.838017858483207 C 8.996709521677314 -6.957960014598347 7.290532998017997 -8.676120407400733 5.185839134181671 -8.676120407400733 C 3.0811452703453446 -8.676120407400733 1.3749687466860272 -6.957745249918364 1.3749687466860272 -4.838017858483207 C 1.3749687466860272 -2.7182904670480497 3.081188223281341 -0.9999582625016785 5.185839134181671 -0.9999582625016785 Z M 5.185839134181671 -0.8698538193677958 C 7.361877824708449 -0.8698538193677958 9.125869000219271 -2.646473158061635 9.125869000219271 -4.838017858483207 C 9.125869000219271 -7.029562558904779 7.361877824708449 -8.806224850534615 5.185839134181671 -8.806224850534615 C 3.0098004436548926 -8.806224850534615 1.2458092681440713 -7.029605511840776 1.2458092681440713 -4.838017858483207 C 1.2458092681440713 -2.6464302051256388 3.0097145377828993 -0.8698538193677958 5.185839134181671 -0.8698538193677958 Z" fill="#ffffff" transform="matrix(1,0,0,1,0,0)" fill-rule="evenodd"></path></g><g clip-path="url(#SvgjsClipPath291828635deba-12a7-4b4e-96d2-8bf1349bd9c9)"><path d=" M 4.604514098402878 -0.8698538193677958 C 6.709207962239203 -0.8698538193677958 8.415384485898521 -2.587971259234185 8.415384485898521 -4.707913415349325 C 8.415384485898521 -6.8278555714644655 6.709207962239205 -8.54601596426685 4.604514098402878 -8.54601596426685 C 2.4998202345665512 -8.54601596426685 0.7936866638432312 -6.827640806784482 0.7936866638432312 -4.707913415349325 C 0.7936866638432312 -2.588186023914168 2.499863187502548 -0.8698538193677958 4.604514098402878 -0.8698538193677958 Z M 4.604514098402878 -0.7397493762339149 C 6.780552788929655 -0.7397493762339149 8.544586917376474 -2.5163687149277534 8.544586917376474 -4.707913415349325 C 8.544586917376474 -6.899458115770897 6.780552788929655 -8.676120407400733 4.604514098402878 -8.676120407400733 C 2.4284754078761006 -8.676120407400733 0.6644842323652789 -6.899501068706893 0.6644842323652789 -4.707913415349325 C 0.6644842323652789 -2.516325761991756 2.4285183608120966 -0.7396634703619203 4.604514098402878 -0.7396634703619203 Z" fill="#ffffff" transform="matrix(1,0,0,1,0,0)" fill-rule="evenodd"></path></g><g clip-path="url(#SvgjsClipPath291828635deba-12a7-4b4e-96d2-8bf1349bd9c9)"><path d=" M 5.315041565659623 -0.4144667919312104 C 7.419735429495949 -0.4144667919312104 9.125869000219271 -2.132841949413578 9.125869000219271 -4.252569340848734 C 9.125869000219271 -6.372296732283891 7.419692476559953 -8.090628936830264 5.315041565659623 -8.090628936830264 C 3.210390654759293 -8.090628936830264 1.5041711781639797 -6.372253779347895 1.5041711781639797 -4.252569340848735 C 1.5041711781639797 -2.1328849023495753 3.210347701823297 -0.4144667919312104 5.315041565659623 -0.4144667919312104 Z M 5.315041565659623 -0.2843623487973277 C 7.491037303250403 -0.2843623487973277 9.255071431697221 -2.060981687491167 9.255071431697221 -4.252569340848735 C 9.255071431697221 -6.444156994206304 7.491037303250405 -8.220776332900142 5.315041565659623 -8.220776332900142 C 3.139045828068841 -8.220776332900142 1.374968746686027 -6.444114041270307 1.374968746686027 -4.252569340848735 C 1.374968746686027 -2.0610246404271635 3.139002875132845 -0.2843623487973277 5.315041565659623 -0.2843623487973277 Z" fill="#ffffff" transform="matrix(1,0,0,1,0,0)" fill-rule="evenodd"></path></g><path d=" M 3.5360454755042148 -4.346302899610306 C 3.5955139605783213 -4.330292153628816 3.659556944504282 -4.317140469429735 3.7281744272820974 -4.306847847013064 C 3.7967919100599126 -4.296555224596391 3.8722711411155095 -4.291408913388055 3.9546121204488878 -4.291408913388055 C 4.094134335430446 -4.291408913388055 4.2176458044305125 -4.310850533508436 4.32514652744909 -4.349733773749197 C 4.432647250467667 -4.388617013989959 4.522421790435309 -4.441795563142766 4.594470147352014 -4.509269421207618 C 4.66651850426872 -4.576743279272469 4.720840678134491 -4.654509759753993 4.7574366689493255 -4.742568862652189 C 4.794032659764161 -4.830627965550386 4.8123306551715785 -4.9249770043698815 4.8123306551715785 -5.025615979110677 C 4.8123306551715785 -5.121680454999619 4.796319909190088 -5.213742244393187 4.764298417227107 -5.301801347291383 C 4.732276925264127 -5.3898604501895795 4.683672874963174 -5.46648330595814 4.61848626632425 -5.531669914597065 C 4.553299657685326 -5.596856523235989 4.471530490708429 -5.648891447675832 4.37317876539356 -5.687774687916594 C 4.2748270400786925 -5.726657928157357 4.1593209440693695 -5.746099548277737 4.026660477365594 -5.746099548277737 L 3.2238359288651557 -5.746099548277737 L 3.2238359288651557 -3.3444876510542043 L 3.5360454755042148 -3.3444876510542043 L 3.5360454755042148 -4.346302899610306 M 3.5360454755042148 -5.595141086166544 L 3.896287260087745 -5.595141086166544 C 3.992351735976686 -5.595141086166544 4.076979964735992 -5.57798671547209 4.150171946365661 -5.543677974083183 C 4.22336392799533 -5.509369232694274 4.2839760377824 -5.464196056532213 4.332008275726872 -5.408158445596997 C 4.380040513671342 -5.352120834661781 4.416064692129694 -5.289221475448784 4.4400808111019305 -5.219460367958005 C 4.464096930074166 -5.1496992604672265 4.476104989560284 -5.080509965332929 4.476104989560284 -5.011892482555114 C 4.476104989560284 -4.945562249203226 4.46524055478713 -4.8786602034948565 4.443511685240821 -4.811186345430005 C 4.421782815694513 -4.743712487365153 4.386902261949124 -4.6825285652216015 4.3388700240046525 -4.6276345789993485 C 4.290837786060182 -4.572740592777097 4.230225676273112 -4.528139228971517 4.1570336946434425 -4.49383048758261 C 4.083841713013773 -4.459521746193701 3.995782610115577 -4.4423673754992485 3.8928563859488543 -4.4423673754992485 C 3.8219516537451117 -4.4423673754992485 3.7567650451061874 -4.445226437281656 3.697296560032081 -4.450944560846475 C 3.6378280749579743 -4.456662684411293 3.5840777134486856 -4.468670743897411 3.5360454755042148 -4.486968739304828 L 3.5360454755042148 -5.595141086166544 M 5.01810101716088 -5.746099548277737 L 5.848372558772445 -4.253669297860256 L 5.848372558772445 -3.3444876510542043 L 6.160582105411503 -3.3444876510542043 L 6.160582105411503 -4.284547165110273 L 7.00457714357863 -5.746099548277737 L 6.819309940078529 -5.746099548277737 L 6.085102874355907 -4.480106991027046 L 6.071379377800344 -4.480106991027046 L 5.371481053466629 -5.746099548277737 L 5.01810101716088 -5.746099548277737" fill="#ffffff" transform="matrix(1,0,0,1,0,0)" fill-rule="nonzero"></path></g><g><path d=" M 0.546 0.05999999999999983 Q 0.624 0.05999999999999983 0.69225 0.10499999999999976 Q 0.7605000000000001 0.1499999999999999 0.8025 0.2264999999999998 Q 0.8445 0.3029999999999998 0.8445 0.39749999999999985 Q 0.8445 0.4904999999999998 0.8025 0.5669999999999998 Q 0.7605000000000001 0.6434999999999998 0.69225 0.6892499999999999 Q 0.624 0.7349999999999999 0.546 0.7349999999999999 L 0.27 0.7349999999999999 L 0.28500000000000003 0.7079999999999999 L 0.28500000000000003 1.0185 Q 0.28500000000000003 1.0574999999999999 0.261 1.0837499999999998 Q 0.23700000000000002 1.1099999999999999 0.198 1.1099999999999999 Q 0.1605 1.1099999999999999 0.1365 1.0837499999999998 Q 0.1125 1.0574999999999999 0.1125 1.0185 L 0.1125 0.15149999999999986 Q 0.1125 0.11249999999999982 0.13875 0.08624999999999994 Q 0.165 0.05999999999999983 0.20400000000000001 0.05999999999999983 L 0.546 0.05999999999999983 M 0.546 0.5639999999999998 Q 0.5745 0.5639999999999998 0.6015 0.5399999999999998 Q 0.6285000000000001 0.5159999999999999 0.6465 0.4777499999999999 Q 0.6645 0.4394999999999999 0.6645 0.39749999999999985 Q 0.6645 0.35399999999999987 0.6465 0.3164999999999999 Q 0.6285000000000001 0.2789999999999998 0.6015 0.2557499999999998 Q 0.5745 0.23249999999999982 0.546 0.23249999999999982 L 0.267 0.23249999999999982 L 0.28500000000000003 0.2054999999999999 L 0.28500000000000003 0.5879999999999999 L 0.2685 0.5639999999999998 L 0.546 0.5639999999999998 M 1.59003369140625 0.3074999999999999 Q 1.62903369140625 0.3074999999999999 1.65453369140625 0.3337499999999999 Q 1.68003369140625 0.3599999999999999 1.68003369140625 0.3989999999999999 L 1.68003369140625 0.7799999999999998 Q 1.68003369140625 0.9389999999999998 1.5915336914062501 1.0319999999999998 Q 1.5030336914062499 1.1249999999999998 1.33653369140625 1.1249999999999998 Q 1.1700336914062501 1.1249999999999998 1.08228369140625 1.0319999999999998 Q 0.99453369140625 0.9389999999999998 0.99453369140625 0.7799999999999998 L 0.99453369140625 0.3989999999999999 Q 0.99453369140625 0.3599999999999999 1.02003369140625 0.3337499999999999 Q 1.04553369140625 0.3074999999999999 1.08453369140625 0.3074999999999999 Q 1.12353369140625 0.3074999999999999 1.14903369140625 0.3337499999999999 Q 1.17453369140625 0.3599999999999999 1.17453369140625 0.3989999999999999 L 1.17453369140625 0.7799999999999998 Q 1.17453369140625 0.8714999999999998 1.21503369140625 0.9157499999999998 Q 1.25553369140625 0.9599999999999999 1.33653369140625 0.9599999999999999 Q 1.41903369140625 0.9599999999999999 1.45953369140625 0.9157499999999998 Q 1.50003369140625 0.8714999999999998 1.50003369140625 0.7799999999999998 L 1.50003369140625 0.3989999999999999 Q 1.50003369140625 0.3599999999999999 1.52553369140625 0.3337499999999999 Q 1.55103369140625 0.3074999999999999 1.59003369140625 0.3074999999999999 M 2.303996337890625 0.29249999999999987 Q 2.414996337890625 0.29249999999999987 2.472746337890625 0.33899999999999986 Q 2.530496337890625 0.38549999999999984 2.552246337890625 0.4627499999999999 Q 2.573996337890625 0.5399999999999998 2.573996337890625 0.6344999999999998 L 2.573996337890625 1.0185 Q 2.573996337890625 1.0574999999999999 2.548496337890625 1.0837499999999998 Q 2.522996337890625 1.1099999999999999 2.483996337890625 1.1099999999999999 Q 2.444996337890625 1.1099999999999999 2.419496337890625 1.0837499999999998 Q 2.3939963378906253 1.0574999999999999 2.3939963378906253 1.0185 L 2.3939963378906253 0.6344999999999998 Q 2.3939963378906253 0.5849999999999999 2.381246337890625 0.5452499999999999 Q 2.368496337890625 0.5054999999999998 2.335496337890625 0.4814999999999998 Q 2.302496337890625 0.4574999999999999 2.240996337890625 0.4574999999999999 Q 2.180996337890625 0.4574999999999999 2.139746337890625 0.4814999999999998 Q 2.098496337890625 0.5054999999999998 2.076746337890625 0.5452499999999999 Q 2.054996337890625 0.5849999999999999 2.054996337890625 0.6344999999999998 L 2.054996337890625 1.0185 Q 2.054996337890625 1.0574999999999999 2.029496337890625 1.0837499999999998 Q 2.003996337890625 1.1099999999999999 1.964996337890625 1.1099999999999999 Q 1.925996337890625 1.1099999999999999 1.900496337890625 1.0837499999999998 Q 1.874996337890625 1.0574999999999999 1.874996337890625 1.0185 L 1.874996337890625 0.3989999999999999 Q 1.874996337890625 0.3599999999999999 1.900496337890625 0.3337499999999999 Q 1.925996337890625 0.3074999999999999 1.964996337890625 0.3074999999999999 Q 2.003996337890625 0.3074999999999999 2.029496337890625 0.3337499999999999 Q 2.054996337890625 0.3599999999999999 2.054996337890625 0.3989999999999999 L 2.054996337890625 0.4634999999999999 L 2.032496337890625 0.45899999999999985 Q 2.045996337890625 0.4334999999999999 2.071496337890625 0.4042499999999999 Q 2.096996337890625 0.3749999999999999 2.131496337890625 0.3494999999999998 Q 2.165996337890625 0.32399999999999984 2.209496337890625 0.3082499999999999 Q 2.2529963378906253 0.29249999999999987 2.303996337890625 0.29249999999999987 M 3.1395087890625 1.1249999999999998 Q 3.0120087890625 1.1249999999999998 2.9182587890625 1.07175 Q 2.8245087890625 1.0185 2.7742587890625 0.9269999999999998 Q 2.7240087890625 0.8354999999999999 2.7240087890625 0.7199999999999999 Q 2.7240087890625 0.5849999999999999 2.7787587890625 0.4897499999999999 Q 2.8335087890625 0.39449999999999985 2.9220087890625 0.3434999999999998 Q 3.0105087890625 0.29249999999999987 3.1095087890625 0.29249999999999987 Q 3.1860087890625 0.29249999999999987 3.2542587890625 0.32399999999999984 Q 3.3225087890625 0.3554999999999998 3.3750087890625 0.4102499999999999 Q 3.4275087890625002 0.46499999999999986 3.4582587890625 0.5369999999999998 Q 3.4890087890625 0.6089999999999999 3.4890087890625 0.69 Q 3.4875087890625 0.7259999999999999 3.4605087890625 0.7484999999999999 Q 3.4335087890625 0.7709999999999999 3.3975087890625 0.7709999999999999 L 2.8245087890625 0.7709999999999999 L 2.7795087890625 0.6209999999999999 L 3.3300087890625 0.6209999999999999 L 3.2970087890625 0.6509999999999998 L 3.2970087890625 0.6104999999999998 Q 3.2940087890625 0.5669999999999998 3.2662587890625 0.5324999999999999 Q 3.2385087890625 0.4979999999999999 3.1972587890625 0.4777499999999999 Q 3.1560087890625 0.4574999999999999 3.1095087890625 0.4574999999999999 Q 3.0645087890625 0.4574999999999999 3.0255087890625 0.4694999999999999 Q 2.9865087890625 0.4814999999999998 2.9580087890625 0.5099999999999999 Q 2.9295087890625 0.5384999999999999 2.9130087890625 0.5864999999999999 Q 2.8965087890625 0.6344999999999998 2.8965087890625 0.7079999999999999 Q 2.8965087890625 0.7889999999999999 2.9302587890625 0.8452499999999998 Q 2.9640087890625 0.9014999999999999 3.0172587890625 0.9307499999999999 Q 3.0705087890625 0.9599999999999999 3.1305087890625 0.9599999999999999 Q 3.1860087890625 0.9599999999999999 3.2190087890625 0.9509999999999998 Q 3.2520087890625 0.9419999999999998 3.2722587890625 0.9292499999999999 Q 3.2925087890625 0.9164999999999999 3.3090087890625 0.9074999999999999 Q 3.3360087890625 0.8939999999999999 3.3600087890625 0.8939999999999999 Q 3.3930087890625 0.8939999999999999 3.4147587890624997 0.9164999999999999 Q 3.4365087890625 0.9389999999999998 3.4365087890625 0.9689999999999999 Q 3.4365087890625 1.0094999999999998 3.3945087890625 1.0425 Q 3.3555087890625 1.0755 3.2850087890625 1.10025 Q 3.2145087890625 1.1249999999999998 3.1395087890625 1.1249999999999998 M 4.009534423828125 1.1249999999999998 Q 3.882034423828125 1.1249999999999998 3.788284423828125 1.07175 Q 3.694534423828125 1.0185 3.644284423828125 0.9269999999999998 Q 3.594034423828125 0.8354999999999999 3.594034423828125 0.7199999999999999 Q 3.594034423828125 0.5849999999999999 3.648784423828125 0.4897499999999999 Q 3.703534423828125 0.39449999999999985 3.792034423828125 0.3434999999999998 Q 3.880534423828125 0.29249999999999987 3.979534423828125 0.29249999999999987 Q 4.056034423828125 0.29249999999999987 4.124284423828125 0.32399999999999984 Q 4.192534423828125 0.3554999999999998 4.245034423828125 0.4102499999999999 Q 4.297534423828125 0.46499999999999986 4.328284423828125 0.5369999999999998 Q 4.359034423828125 0.6089999999999999 4.359034423828125 0.69 Q 4.357534423828125 0.7259999999999999 4.330534423828125 0.7484999999999999 Q 4.3035344238281255 0.7709999999999999 4.267534423828125 0.7709999999999999 L 3.694534423828125 0.7709999999999999 L 3.649534423828125 0.6209999999999999 L 4.200034423828125 0.6209999999999999 L 4.167034423828125 0.6509999999999998 L 4.167034423828125 0.6104999999999998 Q 4.1640344238281255 0.5669999999999998 4.136284423828125 0.5324999999999999 Q 4.108534423828125 0.4979999999999999 4.067284423828125 0.4777499999999999 Q 4.026034423828125 0.4574999999999999 3.979534423828125 0.4574999999999999 Q 3.934534423828125 0.4574999999999999 3.895534423828125 0.4694999999999999 Q 3.856534423828125 0.4814999999999998 3.828034423828125 0.5099999999999999 Q 3.799534423828125 0.5384999999999999 3.783034423828125 0.5864999999999999 Q 3.766534423828125 0.6344999999999998 3.766534423828125 0.7079999999999999 Q 3.766534423828125 0.7889999999999999 3.800284423828125 0.8452499999999998 Q 3.834034423828125 0.9014999999999999 3.887284423828125 0.9307499999999999 Q 3.940534423828125 0.9599999999999999 4.000534423828125 0.9599999999999999 Q 4.056034423828125 0.9599999999999999 4.089034423828125 0.9509999999999998 Q 4.122034423828125 0.9419999999999998 4.142284423828125 0.9292499999999999 Q 4.162534423828125 0.9164999999999999 4.179034423828125 0.9074999999999999 Q 4.206034423828125 0.8939999999999999 4.230034423828125 0.8939999999999999 Q 4.263034423828125 0.8939999999999999 4.284784423828125 0.9164999999999999 Q 4.306534423828125 0.9389999999999998 4.306534423828125 0.9689999999999999 Q 4.306534423828125 1.0094999999999998 4.264534423828125 1.0425 Q 4.225534423828125 1.0755 4.155034423828125 1.10025 Q 4.084534423828125 1.1249999999999998 4.009534423828125 1.1249999999999998 M 4.51806005859375 0.3224999999999999 L 4.87356005859375 0.3224999999999999 Q 4.90956005859375 0.3224999999999999 4.93356005859375 0.3464999999999998 Q 4.95756005859375 0.37049999999999983 4.95756005859375 0.40649999999999986 Q 4.95756005859375 0.44099999999999984 4.93356005859375 0.46424999999999983 Q 4.90956005859375 0.4874999999999998 4.87356005859375 0.4874999999999998 L 4.51806005859375 0.4874999999999998 Q 4.48206005859375 0.4874999999999998 4.45806005859375 0.4634999999999999 Q 4.43406005859375 0.4394999999999999 4.43406005859375 0.40349999999999986 Q 4.43406005859375 0.3689999999999999 4.45806005859375 0.3457499999999999 Q 4.48206005859375 0.3224999999999999 4.51806005859375 0.3224999999999999 M 4.67856005859375 0.1349999999999999 Q 4.71756005859375 0.1349999999999999 4.74231005859375 0.1612499999999999 Q 4.76706005859375 0.1874999999999999 4.76706005859375 0.2264999999999998 L 4.76706005859375 0.8939999999999999 Q 4.76706005859375 0.9149999999999998 4.77531005859375 0.9284999999999999 Q 4.78356005859375 0.9419999999999998 4.79781005859375 0.9479999999999998 Q 4.81206005859375 0.9539999999999998 4.82856005859375 0.9539999999999998 Q 4.84656005859375 0.9539999999999998 4.86156005859375 0.9472499999999999 Q 4.87656005859375 0.9404999999999999 4.89606005859375 0.9404999999999999 Q 4.91706005859375 0.9404999999999999 4.93431005859375 0.9599999999999999 Q 4.95156005859375 0.9794999999999998 4.95156005859375 1.0139999999999998 Q 4.95156005859375 1.0559999999999998 4.90581005859375 1.083 Q 4.86006005859375 1.1099999999999999 4.80756005859375 1.1099999999999999 Q 4.77606005859375 1.1099999999999999 4.73781005859375 1.10475 Q 4.69956005859375 1.0995 4.66581005859375 1.0792499999999998 Q 4.63206005859375 1.059 4.60956005859375 1.017 Q 4.58706005859375 0.9749999999999999 4.58706005859375 0.9014999999999999 L 4.58706005859375 0.2264999999999998 Q 4.58706005859375 0.1874999999999999 4.61331005859375 0.1612499999999999 Q 4.63956005859375 0.1349999999999999 4.67856005859375 0.1349999999999999 M 6.226598876953125 0.05549999999999988 Q 6.261098876953125 0.05549999999999988 6.288848876953125 0.08174999999999977 Q 6.316598876953125 0.10799999999999987 6.316598876953125 0.14849999999999985 Q 6.316598876953125 0.1619999999999998 6.312848876953125 0.1762499999999999 Q 6.309098876953125 0.1904999999999999 6.300098876953125 0.20399999999999985 L 5.959598876953125 0.6914999999999999 L 5.986598876953125 0.5879999999999999 L 5.986598876953125 1.0185 Q 5.986598876953125 1.0574999999999999 5.960348876953125 1.0837499999999998 Q 5.934098876953125 1.1099999999999999 5.899598876953125 1.1099999999999999 Q 5.862098876953125 1.1099999999999999 5.835848876953125 1.0837499999999998 Q 5.809598876953125 1.0574999999999999 5.809598876953125 1.0185 L 5.809598876953125 0.5999999999999999 L 5.821598876953125 0.6479999999999999 L 5.497598876953125 0.2174999999999998 Q 5.482598876953125 0.19799999999999984 5.476598876953125 0.17999999999999983 Q 5.470598876953125 0.1619999999999998 5.470598876953125 0.1469999999999999 Q 5.470598876953125 0.10649999999999982 5.502098876953125 0.08099999999999996 Q 5.533598876953125 0.05549999999999988 5.566598876953125 0.05549999999999988 Q 5.608598876953125 0.05549999999999988 5.640098876953125 0.09749999999999992 L 5.928098876953125 0.4949999999999999 L 5.886098876953125 0.4889999999999999 L 6.151598876953125 0.10049999999999981 Q 6.1830988769531245 0.05549999999999988 6.226598876953125 0.05549999999999988 M 7.0381376953125 0.29249999999999987 Q 7.0771376953125 0.29249999999999987 7.1026376953125 0.31799999999999984 Q 7.1281376953125 0.3434999999999998 7.1281376953125 0.3839999999999999 L 7.1281376953125 1.0185 Q 7.1281376953125 1.0574999999999999 7.1026376953125 1.0837499999999998 Q 7.0771376953125 1.1099999999999999 7.0381376953125 1.1099999999999999 Q 6.9991376953125 1.1099999999999999 6.9736376953125 1.0837499999999998 Q 6.9481376953125 1.0574999999999999 6.9481376953125 1.0185 L 6.9481376953125 0.9449999999999998 L 6.9811376953125 0.9584999999999999 Q 6.9811376953125 0.9779999999999999 6.9601376953125005 1.00575 Q 6.9391376953125 1.0334999999999999 6.9031376953125 1.0604999999999998 Q 6.8671376953125005 1.0875 6.8183876953125 1.10625 Q 6.7696376953125 1.1249999999999998 6.7126376953125 1.1249999999999998 Q 6.6091376953125 1.1249999999999998 6.5251376953125 1.07175 Q 6.4411376953125 1.0185 6.3923876953125 0.9247499999999998 Q 6.3436376953125 0.8309999999999998 6.3436376953125 0.7094999999999998 Q 6.3436376953125 0.5864999999999999 6.3923876953125 0.4927499999999999 Q 6.4411376953125 0.3989999999999999 6.5236376953125 0.3457499999999999 Q 6.6061376953125 0.29249999999999987 6.7066376953125 0.29249999999999987 Q 6.7711376953125 0.29249999999999987 6.8251376953125 0.31199999999999983 Q 6.8791376953125 0.3314999999999999 6.9188876953125 0.3614999999999998 Q 6.9586376953125 0.39149999999999985 6.9803876953125 0.4222499999999999 Q 7.0021376953125 0.45299999999999985 7.0021376953125 0.47399999999999987 L 6.9481376953125 0.4934999999999998 L 6.9481376953125 0.3839999999999999 Q 6.9481376953125 0.34499999999999986 6.9736376953125 0.31874999999999987 Q 6.9991376953125 0.29249999999999987 7.0381376953125 0.29249999999999987 M 6.7351376953125 0.9599999999999999 Q 6.8011376953125 0.9599999999999999 6.8506376953125 0.9269999999999998 Q 6.9001376953125 0.8939999999999999 6.9278876953125 0.8369999999999999 Q 6.9556376953125 0.7799999999999998 6.9556376953125 0.7094999999999998 Q 6.9556376953125 0.6374999999999998 6.9278876953125 0.5804999999999999 Q 6.9001376953125 0.5234999999999999 6.8506376953125 0.4904999999999998 Q 6.8011376953125 0.4574999999999999 6.7351376953125 0.4574999999999999 Q 6.6706376953125 0.4574999999999999 6.6211376953125 0.4904999999999998 Q 6.5716376953125 0.5234999999999999 6.5438876953125 0.5804999999999999 Q 6.5161376953125 0.6374999999999998 6.5161376953125 0.7094999999999998 Q 6.5161376953125 0.7799999999999998 6.5438876953125 0.8369999999999999 Q 6.5716376953125 0.8939999999999999 6.6211376953125 0.9269999999999998 Q 6.6706376953125 0.9599999999999999 6.7351376953125 0.9599999999999999 M 7.972616455078125 -2.220446049250313e-16 Q 8.011616455078125 -2.220446049250313e-16 8.037116455078126 0.025499999999999856 Q 8.062616455078125 0.050999999999999934 8.062616455078125 0.09149999999999991 L 8.062616455078125 1.0185 Q 8.062616455078125 1.0574999999999999 8.037116455078126 1.0837499999999998 Q 8.011616455078125 1.1099999999999999 7.972616455078125 1.1099999999999999 Q 7.933616455078125 1.1099999999999999 7.908116455078125 1.0837499999999998 Q 7.882616455078125 1.0574999999999999 7.882616455078125 1.0185 L 7.882616455078125 0.9449999999999998 L 7.915616455078125 0.9584999999999999 Q 7.915616455078125 0.9779999999999999 7.8946164550781255 1.00575 Q 7.873616455078125 1.0334999999999999 7.837616455078125 1.0604999999999998 Q 7.8016164550781255 1.0875 7.752866455078125 1.10625 Q 7.704116455078125 1.1249999999999998 7.647116455078125 1.1249999999999998 Q 7.543616455078125 1.1249999999999998 7.459616455078125 1.07175 Q 7.375616455078125 1.0185 7.326866455078125 0.9247499999999998 Q 7.278116455078125 0.8309999999999998 7.278116455078125 0.7094999999999998 Q 7.278116455078125 0.5864999999999999 7.326866455078125 0.4927499999999999 Q 7.375616455078125 0.3989999999999999 7.458116455078125 0.3457499999999999 Q 7.540616455078125 0.29249999999999987 7.641116455078125 0.29249999999999987 Q 7.705616455078125 0.29249999999999987 7.759616455078125 0.31199999999999983 Q 7.813616455078125 0.3314999999999999 7.853366455078125 0.3614999999999998 Q 7.893116455078125 0.39149999999999985 7.914866455078125 0.4222499999999999 Q 7.936616455078125 0.45299999999999985 7.936616455078125 0.47399999999999987 L 7.882616455078125 0.4934999999999998 L 7.882616455078125 0.09149999999999991 Q 7.882616455078125 0.05249999999999977 7.908116455078125 0.026249999999999885 Q 7.933616455078125 -2.220446049250313e-16 7.972616455078125 -2.220446049250313e-16 M 7.669616455078125 0.9599999999999999 Q 7.735616455078125 0.9599999999999999 7.785116455078125 0.9269999999999998 Q 7.834616455078125 0.8939999999999999 7.862366455078125 0.8369999999999999 Q 7.890116455078125 0.7799999999999998 7.890116455078125 0.7094999999999998 Q 7.890116455078125 0.6374999999999998 7.862366455078125 0.5804999999999999 Q 7.834616455078125 0.5234999999999999 7.785116455078125 0.4904999999999998 Q 7.735616455078125 0.4574999999999999 7.669616455078125 0.4574999999999999 Q 7.605116455078125 0.4574999999999999 7.555616455078125 0.4904999999999998 Q 7.506116455078125 0.5234999999999999 7.478366455078125 0.5804999999999999 Q 7.450616455078125 0.6374999999999998 7.450616455078125 0.7094999999999998 Q 7.450616455078125 0.7799999999999998 7.478366455078125 0.8369999999999999 Q 7.506116455078125 0.8939999999999999 7.555616455078125 0.9269999999999998 Q 7.605116455078125 0.9599999999999999 7.669616455078125 0.9599999999999999 M 8.90709521484375 0.29249999999999987 Q 8.94609521484375 0.29249999999999987 8.97159521484375 0.31799999999999984 Q 8.99709521484375 0.3434999999999998 8.99709521484375 0.3839999999999999 L 8.99709521484375 1.0185 Q 8.99709521484375 1.0574999999999999 8.97159521484375 1.0837499999999998 Q 8.94609521484375 1.1099999999999999 8.90709521484375 1.1099999999999999 Q 8.86809521484375 1.1099999999999999 8.84259521484375 1.0837499999999998 Q 8.81709521484375 1.0574999999999999 8.81709521484375 1.0185 L 8.81709521484375 0.9449999999999998 L 8.85009521484375 0.9584999999999999 Q 8.85009521484375 0.9779999999999999 8.82909521484375 1.00575 Q 8.80809521484375 1.0334999999999999 8.77209521484375 1.0604999999999998 Q 8.73609521484375 1.0875 8.68734521484375 1.10625 Q 8.63859521484375 1.1249999999999998 8.58159521484375 1.1249999999999998 Q 8.47809521484375 1.1249999999999998 8.39409521484375 1.07175 Q 8.31009521484375 1.0185 8.26134521484375 0.9247499999999998 Q 8.21259521484375 0.8309999999999998 8.21259521484375 0.7094999999999998 Q 8.21259521484375 0.5864999999999999 8.26134521484375 0.4927499999999999 Q 8.31009521484375 0.3989999999999999 8.39259521484375 0.3457499999999999 Q 8.47509521484375 0.29249999999999987 8.57559521484375 0.29249999999999987 Q 8.64009521484375 0.29249999999999987 8.69409521484375 0.31199999999999983 Q 8.74809521484375 0.3314999999999999 8.78784521484375 0.3614999999999998 Q 8.82759521484375 0.39149999999999985 8.84934521484375 0.4222499999999999 Q 8.87109521484375 0.45299999999999985 8.87109521484375 0.47399999999999987 L 8.81709521484375 0.4934999999999998 L 8.81709521484375 0.3839999999999999 Q 8.81709521484375 0.34499999999999986 8.84259521484375 0.31874999999999987 Q 8.86809521484375 0.29249999999999987 8.90709521484375 0.29249999999999987 M 8.60409521484375 0.9599999999999999 Q 8.67009521484375 0.9599999999999999 8.71959521484375 0.9269999999999998 Q 8.76909521484375 0.8939999999999999 8.79684521484375 0.8369999999999999 Q 8.82459521484375 0.7799999999999998 8.82459521484375 0.7094999999999998 Q 8.82459521484375 0.6374999999999998 8.79684521484375 0.5804999999999999 Q 8.76909521484375 0.5234999999999999 8.71959521484375 0.4904999999999998 Q 8.67009521484375 0.4574999999999999 8.60409521484375 0.4574999999999999 Q 8.53959521484375 0.4574999999999999 8.49009521484375 0.4904999999999998 Q 8.44059521484375 0.5234999999999999 8.41284521484375 0.5804999999999999 Q 8.38509521484375 0.6374999999999998 8.38509521484375 0.7094999999999998 Q 8.38509521484375 0.7799999999999998 8.41284521484375 0.8369999999999999 Q 8.44059521484375 0.8939999999999999 8.49009521484375 0.9269999999999998 Q 8.53959521484375 0.9599999999999999 8.60409521484375 0.9599999999999999 M 9.2100380859375 0.3074999999999999 Q 9.2385380859375 0.3074999999999999 9.2625380859375 0.32174999999999987 Q 9.2865380859375 0.33599999999999985 9.2985380859375 0.3644999999999998 L 9.5190380859375 0.8684999999999998 L 9.4860380859375 0.8834999999999998 L 9.7110380859375 0.3659999999999999 Q 9.7365380859375 0.3059999999999998 9.7905380859375 0.30899999999999983 Q 9.8280380859375 0.30899999999999983 9.851288085937501 0.3322499999999998 Q 9.8745380859375 0.3554999999999998 9.8745380859375 0.3899999999999999 Q 9.8745380859375 0.40049999999999986 9.8707880859375 0.41249999999999987 Q 9.8670380859375 0.4244999999999999 9.8625380859375 0.43499999999999983 L 9.5820380859375 1.053 Q 9.5580380859375 1.107 9.5055380859375 1.1099999999999999 Q 9.4770380859375 1.1144999999999998 9.4507880859375 1.0995 Q 9.4245380859375 1.0844999999999998 9.4110380859375 1.053 L 9.1320380859375 0.43499999999999983 Q 9.1290380859375 0.4274999999999999 9.1252880859375 0.41549999999999987 Q 9.1215380859375 0.40349999999999986 9.1215380859375 0.3869999999999999 Q 9.1215380859375 0.3599999999999999 9.1455380859375 0.3337499999999999 Q 9.1695380859375 0.3074999999999999 9.2100380859375 0.3074999999999999" fill="#ffffff" fill-rule="nonzero"></path></g><g></g></g><defs><clipPath id="SvgjsClipPath29184"><path d=" M 0.6644842323652789 -8.840587199331942 h 8.590587199331942 v 8.590587199331942 h -8.590587199331942 Z"></path></clipPath><clipPath id="SvgjsClipPath291828635deba-12a7-4b4e-96d2-8bf1349bd9c9"><path d=" M 0.6644842323652789 -8.806224850534615 L 9.255071431697221 -8.806224850534615 L 9.255071431697221 -0.2843623487973277 L 0.6644842323652789 -0.2843623487973277 Z"></path></clipPath></defs></svg>